<?xml version="1.0" encoding="UTF-8"?>
<svg xmlns="http://www.w3.org/2000/svg" xmlns:xlink="http://www.w3.org/1999/xlink" width="854" height="480" viewBox="0 0 854 480">
<defs>
<g>
<g id="glyph-0-0">
<path d="M 3.472656 -7.507812 L 3.472656 -7.226562 C 3.203125 -7.199219 3.019531 -7.164062 2.921875 -7.113281 C 2.820312 -7.0625 2.773438 -6.945312 2.773438 -6.765625 C 2.773438 -6.71875 2.777344 -6.664062 2.789062 -6.597656 C 2.800781 -6.535156 2.816406 -6.46875 2.835938 -6.402344 L 4.121094 -2.515625 L 4.214844 -2.515625 L 5.488281 -5.773438 C 5.496094 -5.789062 5.445312 -5.953125 5.335938 -6.265625 C 5.226562 -6.578125 5.148438 -6.769531 5.105469 -6.839844 C 5.023438 -6.972656 4.929688 -7.0625 4.832031 -7.117188 C 4.730469 -7.171875 4.550781 -7.207031 4.292969 -7.226562 L 4.292969 -7.507812 L 7.761719 -7.507812 L 7.761719 -7.226562 C 7.445312 -7.199219 7.230469 -7.167969 7.125 -7.121094 C 7.019531 -7.078125 6.964844 -6.980469 6.964844 -6.828125 C 6.964844 -6.792969 6.976562 -6.722656 7 -6.621094 C 7.023438 -6.519531 7.066406 -6.375 7.121094 -6.195312 L 8.277344 -2.621094 L 8.355469 -2.621094 L 9.5625 -6.269531 C 9.585938 -6.335938 9.605469 -6.40625 9.617188 -6.480469 C 9.632812 -6.554688 9.640625 -6.636719 9.640625 -6.726562 C 9.640625 -6.933594 9.5625 -7.070312 9.40625 -7.140625 C 9.3125 -7.183594 9.132812 -7.210938 8.871094 -7.226562 L 8.871094 -7.507812 L 10.902344 -7.507812 L 10.902344 -7.226562 C 10.734375 -7.199219 10.601562 -7.15625 10.507812 -7.097656 C 10.34375 -6.984375 10.21875 -6.789062 10.128906 -6.515625 L 7.902344 0.183594 L 7.609375 0.183594 L 5.746094 -5.023438 L 5.667969 -5.023438 L 3.632812 0.183594 L 3.324219 0.183594 L 0.976562 -6.515625 C 0.875 -6.808594 0.773438 -6.996094 0.671875 -7.074219 C 0.570312 -7.152344 0.414062 -7.207031 0.199219 -7.238281 L 0.199219 -7.507812 Z "/>
</g>
<g id="glyph-0-1">
<path d="M 0.179688 -0.265625 C 0.382812 -0.292969 0.53125 -0.347656 0.625 -0.429688 C 0.722656 -0.515625 0.769531 -0.683594 0.769531 -0.9375 L 0.769531 -6.597656 C 0.769531 -6.816406 0.730469 -6.972656 0.652344 -7.0625 C 0.570312 -7.148438 0.414062 -7.207031 0.179688 -7.238281 L 0.179688 -7.507812 L 2.328125 -7.507812 L 2.328125 -4.382812 C 2.554688 -4.65625 2.792969 -4.871094 3.046875 -5.019531 C 3.296875 -5.171875 3.582031 -5.246094 3.894531 -5.246094 C 4.320312 -5.246094 4.675781 -5.121094 4.953125 -4.875 C 5.230469 -4.625 5.371094 -4.203125 5.371094 -3.609375 L 5.371094 -0.9375 C 5.371094 -0.6875 5.414062 -0.523438 5.5 -0.449219 C 5.582031 -0.371094 5.726562 -0.308594 5.925781 -0.265625 L 5.925781 0 L 3.316406 0 L 3.316406 -0.265625 C 3.515625 -0.304688 3.648438 -0.359375 3.722656 -0.429688 C 3.792969 -0.496094 3.828125 -0.652344 3.828125 -0.894531 L 3.828125 -3.585938 C 3.828125 -3.839844 3.804688 -4.027344 3.753906 -4.15625 C 3.667969 -4.382812 3.496094 -4.496094 3.238281 -4.496094 C 3.046875 -4.496094 2.847656 -4.410156 2.644531 -4.230469 C 2.441406 -4.054688 2.339844 -3.933594 2.339844 -3.867188 L 2.339844 -0.894531 C 2.339844 -0.652344 2.375 -0.496094 2.445312 -0.429688 C 2.519531 -0.359375 2.65625 -0.304688 2.855469 -0.265625 L 2.855469 0 L 0.179688 0 Z "/>
</g>
<g id="glyph-0-2">
<path d="M 0.667969 -6.8125 C 0.667969 -7.050781 0.75 -7.257812 0.917969 -7.425781 C 1.085938 -7.59375 1.292969 -7.675781 1.53125 -7.675781 C 1.765625 -7.675781 1.964844 -7.59375 2.132812 -7.425781 C 2.300781 -7.257812 2.386719 -7.050781 2.386719 -6.8125 C 2.386719 -6.574219 2.304688 -6.371094 2.132812 -6.203125 C 1.964844 -6.035156 1.765625 -5.953125 1.53125 -5.953125 C 1.292969 -5.953125 1.085938 -6.035156 0.917969 -6.203125 C 0.75 -6.371094 0.667969 -6.574219 0.667969 -6.8125 Z M 0.179688 -0.265625 C 0.375 -0.296875 0.507812 -0.347656 0.582031 -0.414062 C 0.691406 -0.511719 0.742188 -0.683594 0.742188 -0.9375 L 0.742188 -4.203125 C 0.742188 -4.429688 0.707031 -4.582031 0.628906 -4.664062 C 0.554688 -4.746094 0.402344 -4.804688 0.179688 -4.84375 L 0.179688 -5.117188 L 2.3125 -5.117188 L 2.3125 -0.894531 C 2.3125 -0.652344 2.347656 -0.496094 2.417969 -0.429688 C 2.492188 -0.359375 2.628906 -0.304688 2.828125 -0.265625 L 2.828125 0 L 0.179688 0 Z "/>
</g>
<g id="glyph-0-3">
<path d="M 2.863281 -5.257812 C 3.332031 -5.257812 3.734375 -5.144531 4.078125 -4.914062 C 4.417969 -4.6875 4.589844 -4.394531 4.589844 -4.035156 C 4.589844 -3.84375 4.523438 -3.679688 4.386719 -3.535156 C 4.25 -3.394531 4.078125 -3.324219 3.867188 -3.324219 C 3.726562 -3.324219 3.605469 -3.359375 3.5 -3.421875 C 3.300781 -3.539062 3.199219 -3.75 3.199219 -4.050781 C 3.199219 -4.085938 3.203125 -4.132812 3.207031 -4.195312 C 3.210938 -4.257812 3.210938 -4.328125 3.210938 -4.398438 C 3.210938 -4.59375 3.167969 -4.730469 3.074219 -4.800781 C 2.980469 -4.875 2.875 -4.910156 2.757812 -4.910156 C 2.414062 -4.910156 2.167969 -4.71875 2.023438 -4.34375 C 1.878906 -3.964844 1.804688 -3.53125 1.804688 -3.042969 C 1.804688 -2.347656 1.945312 -1.765625 2.21875 -1.296875 C 2.492188 -0.828125 2.863281 -0.589844 3.332031 -0.589844 C 3.625 -0.589844 3.875 -0.65625 4.078125 -0.785156 C 4.203125 -0.863281 4.355469 -1 4.535156 -1.203125 L 4.742188 -1.015625 C 4.378906 -0.511719 3.957031 -0.167969 3.472656 0.0234375 C 3.214844 0.121094 2.941406 0.167969 2.652344 0.167969 C 1.941406 0.167969 1.359375 -0.0859375 0.90625 -0.597656 C 0.453125 -1.105469 0.226562 -1.730469 0.226562 -2.464844 C 0.226562 -3.238281 0.46875 -3.894531 0.945312 -4.441406 C 1.425781 -4.984375 2.066406 -5.257812 2.863281 -5.257812 Z "/>
</g>
<g id="glyph-0-4">
<rect x="0" y="0" width="0" height="0" mask="url(#mask-0)"/>
</g>
<g id="glyph-0-5">
<path d="M 0.25 -2.550781 C 0.25 -3.402344 0.476562 -4.066406 0.929688 -4.539062 C 1.382812 -5.011719 1.929688 -5.246094 2.570312 -5.246094 C 2.9375 -5.246094 3.28125 -5.148438 3.601562 -4.957031 C 3.925781 -4.765625 4.171875 -4.5 4.34375 -4.160156 C 4.476562 -3.902344 4.566406 -3.570312 4.617188 -3.164062 C 4.640625 -2.972656 4.65625 -2.824219 4.65625 -2.722656 L 1.824219 -2.722656 C 1.847656 -2.277344 1.921875 -1.894531 2.039062 -1.566406 C 2.257812 -0.957031 2.636719 -0.652344 3.183594 -0.652344 C 3.445312 -0.652344 3.691406 -0.730469 3.921875 -0.894531 C 4.0625 -0.992188 4.238281 -1.15625 4.449219 -1.390625 L 4.703125 -1.230469 C 4.359375 -0.667969 3.960938 -0.273438 3.511719 -0.0546875 C 3.21875 0.0859375 2.878906 0.15625 2.5 0.15625 C 1.953125 0.15625 1.441406 -0.0585938 0.964844 -0.488281 C 0.488281 -0.917969 0.25 -1.605469 0.25 -2.550781 Z M 3.289062 -3.136719 C 3.28125 -3.789062 3.230469 -4.246094 3.136719 -4.507812 C 3.042969 -4.769531 2.855469 -4.898438 2.570312 -4.898438 C 2.28125 -4.898438 2.085938 -4.75 1.976562 -4.449219 C 1.871094 -4.148438 1.808594 -3.710938 1.796875 -3.136719 Z "/>
</g>
<g id="glyph-0-6">
<path d="M 0.199219 -0.265625 C 0.414062 -0.292969 0.5625 -0.339844 0.644531 -0.417969 C 0.726562 -0.492188 0.773438 -0.640625 0.78125 -0.855469 L 0.792969 -1.183594 L 0.792969 -4.203125 C 0.792969 -4.433594 0.753906 -4.59375 0.671875 -4.675781 C 0.59375 -4.757812 0.4375 -4.816406 0.199219 -4.84375 L 0.199219 -5.117188 L 2.3125 -5.117188 L 2.3125 -4.242188 C 2.546875 -4.550781 2.78125 -4.792969 3.011719 -4.976562 C 3.242188 -5.15625 3.511719 -5.246094 3.8125 -5.246094 C 4.042969 -5.246094 4.246094 -5.171875 4.429688 -5.027344 C 4.613281 -4.878906 4.703125 -4.664062 4.703125 -4.382812 C 4.703125 -4.167969 4.640625 -3.988281 4.511719 -3.847656 C 4.382812 -3.707031 4.214844 -3.632812 4.007812 -3.632812 C 3.773438 -3.632812 3.570312 -3.746094 3.398438 -3.964844 C 3.226562 -4.1875 3.105469 -4.296875 3.039062 -4.296875 C 2.890625 -4.296875 2.742188 -4.207031 2.589844 -4.023438 C 2.441406 -3.839844 2.367188 -3.578125 2.367188 -3.238281 L 2.367188 -1.140625 C 2.367188 -0.769531 2.417969 -0.539062 2.523438 -0.449219 C 2.632812 -0.355469 2.84375 -0.292969 3.164062 -0.265625 L 3.164062 0 L 0.199219 0 Z "/>
</g>
<g id="glyph-0-7">
<path d="M 0.179688 -4.628906 L 0.179688 -4.9375 C 0.277344 -5.027344 0.398438 -5.132812 0.542969 -5.257812 C 0.734375 -5.433594 0.914062 -5.617188 1.085938 -5.804688 C 1.421875 -6.171875 1.726562 -6.570312 2 -6.992188 L 2.285156 -6.992188 L 2.285156 -5.117188 L 3.339844 -5.117188 L 3.339844 -4.628906 L 2.285156 -4.628906 L 2.285156 -1.285156 C 2.285156 -1.128906 2.308594 -1 2.355469 -0.894531 C 2.425781 -0.730469 2.546875 -0.652344 2.710938 -0.652344 C 2.855469 -0.652344 2.976562 -0.703125 3.074219 -0.804688 C 3.171875 -0.910156 3.269531 -1.050781 3.367188 -1.230469 L 3.632812 -1.101562 C 3.503906 -0.796875 3.347656 -0.550781 3.167969 -0.359375 C 2.851562 -0.0234375 2.460938 0.144531 2 0.144531 C 1.742188 0.144531 1.511719 0.0976562 1.316406 0 C 0.941406 -0.1875 0.753906 -0.53125 0.753906 -1.023438 L 0.753906 -4.628906 Z "/>
</g>
<g id="glyph-0-8">
<path d="M 3.207031 -7.664062 C 3.652344 -7.664062 4.054688 -7.609375 4.421875 -7.503906 C 4.972656 -7.351562 5.246094 -7.074219 5.246094 -6.667969 C 5.246094 -6.386719 5.125 -6.1875 4.886719 -6.074219 C 4.769531 -6.015625 4.640625 -5.988281 4.507812 -5.988281 C 4.308594 -5.988281 4.140625 -6.042969 4 -6.152344 C 3.863281 -6.261719 3.792969 -6.402344 3.792969 -6.574219 C 3.792969 -6.65625 3.828125 -6.808594 3.90625 -7.03125 C 3.90625 -7.117188 3.847656 -7.191406 3.730469 -7.25 C 3.613281 -7.308594 3.46875 -7.339844 3.296875 -7.339844 C 2.871094 -7.339844 2.589844 -7.148438 2.457031 -6.769531 C 2.378906 -6.546875 2.339844 -6.144531 2.339844 -5.5625 L 2.339844 -5.039062 L 3.472656 -5.039062 C 3.6875 -5.050781 3.890625 -5.0625 4.070312 -5.074219 C 4.253906 -5.085938 4.5 -5.109375 4.804688 -5.144531 L 5.398438 -5.207031 L 5.398438 -0.894531 C 5.398438 -0.640625 5.441406 -0.480469 5.523438 -0.410156 C 5.609375 -0.339844 5.753906 -0.292969 5.953125 -0.265625 L 5.953125 0 L 3.339844 0 L 3.339844 -0.265625 C 3.542969 -0.304688 3.679688 -0.359375 3.75 -0.429688 C 3.820312 -0.496094 3.855469 -0.652344 3.855469 -0.894531 L 3.855469 -4.253906 C 3.855469 -4.386719 3.832031 -4.46875 3.785156 -4.503906 C 3.734375 -4.535156 3.613281 -4.550781 3.417969 -4.550781 L 2.339844 -4.550781 L 2.339844 -0.910156 L 2.375 -0.5625 C 2.386719 -0.464844 2.4375 -0.398438 2.523438 -0.359375 C 2.613281 -0.320312 2.722656 -0.289062 2.855469 -0.265625 L 2.855469 0 L 0.152344 0 L 0.152344 -0.265625 C 0.378906 -0.292969 0.53125 -0.332031 0.609375 -0.390625 C 0.730469 -0.484375 0.792969 -0.667969 0.792969 -0.9375 L 0.792969 -4.550781 L 0.152344 -4.550781 L 0.152344 -5.039062 L 0.792969 -5.039062 C 0.792969 -5.59375 0.839844 -6 0.933594 -6.253906 C 1.027344 -6.582031 1.210938 -6.863281 1.480469 -7.097656 C 1.710938 -7.296875 1.976562 -7.4375 2.273438 -7.53125 C 2.570312 -7.621094 2.878906 -7.664062 3.207031 -7.664062 Z "/>
</g>
<g id="glyph-0-9">
<path d="M 2.4375 -0.632812 C 2.617188 -0.632812 2.785156 -0.6875 2.941406 -0.796875 C 3.027344 -0.863281 3.128906 -0.964844 3.25 -1.101562 L 3.25 -2.722656 C 2.953125 -2.652344 2.691406 -2.535156 2.46875 -2.382812 C 2.089844 -2.117188 1.898438 -1.78125 1.898438 -1.371094 C 1.898438 -1.128906 1.953125 -0.945312 2.0625 -0.820312 C 2.175781 -0.695312 2.296875 -0.632812 2.4375 -0.632812 Z M 0.28125 -1.035156 C 0.28125 -1.535156 0.523438 -1.929688 1.003906 -2.222656 C 1.484375 -2.515625 2.238281 -2.8125 3.265625 -3.109375 L 3.265625 -3.917969 C 3.265625 -4.246094 3.195312 -4.488281 3.058594 -4.648438 C 2.917969 -4.804688 2.671875 -4.882812 2.316406 -4.882812 C 2.117188 -4.882812 1.953125 -4.84375 1.824219 -4.769531 C 1.695312 -4.695312 1.632812 -4.605469 1.632812 -4.492188 C 1.632812 -4.449219 1.640625 -4.414062 1.65625 -4.382812 C 1.667969 -4.355469 1.691406 -4.324219 1.71875 -4.292969 L 1.785156 -4.214844 C 1.835938 -4.152344 1.875 -4.085938 1.90625 -4.011719 C 1.9375 -3.9375 1.953125 -3.859375 1.953125 -3.777344 C 1.953125 -3.566406 1.882812 -3.402344 1.742188 -3.289062 C 1.605469 -3.175781 1.441406 -3.121094 1.257812 -3.121094 C 1.046875 -3.121094 0.863281 -3.183594 0.714844 -3.308594 C 0.5625 -3.4375 0.488281 -3.617188 0.488281 -3.855469 C 0.488281 -4.285156 0.6875 -4.621094 1.089844 -4.871094 C 1.492188 -5.121094 1.984375 -5.246094 2.570312 -5.246094 C 3.199219 -5.246094 3.726562 -5.125 4.148438 -4.882812 C 4.570312 -4.636719 4.78125 -4.183594 4.78125 -3.527344 L 4.78125 -0.835938 C 4.78125 -0.757812 4.800781 -0.6875 4.839844 -0.632812 C 4.882812 -0.578125 4.929688 -0.546875 4.980469 -0.546875 C 5.023438 -0.546875 5.0625 -0.554688 5.097656 -0.574219 C 5.132812 -0.589844 5.183594 -0.632812 5.257812 -0.707031 L 5.425781 -0.472656 C 5.207031 -0.21875 4.96875 -0.0429688 4.703125 0.0585938 C 4.535156 0.125 4.363281 0.15625 4.175781 0.15625 C 3.847656 0.15625 3.609375 0.0625 3.457031 -0.128906 C 3.371094 -0.238281 3.304688 -0.398438 3.265625 -0.613281 C 2.957031 -0.304688 2.609375 -0.0898438 2.222656 0.0390625 C 1.988281 0.117188 1.757812 0.15625 1.53125 0.15625 C 1.226562 0.15625 0.941406 0.0625 0.679688 -0.132812 C 0.414062 -0.328125 0.28125 -0.628906 0.28125 -1.035156 Z "/>
</g>
<g id="glyph-0-10">
<path d="M 0.242188 -2.542969 C 0.242188 -3.316406 0.480469 -3.964844 0.957031 -4.480469 C 1.433594 -4.996094 2.03125 -5.257812 2.75 -5.257812 C 3.484375 -5.257812 4.085938 -4.992188 4.554688 -4.464844 C 5.023438 -3.9375 5.257812 -3.296875 5.257812 -2.542969 C 5.257812 -1.800781 5.023438 -1.164062 4.5625 -0.632812 C 4.097656 -0.0976562 3.496094 0.167969 2.75 0.167969 C 2.027344 0.167969 1.429688 -0.0898438 0.953125 -0.609375 C 0.480469 -1.128906 0.242188 -1.773438 0.242188 -2.542969 Z M 1.878906 -2.542969 C 1.878906 -1.765625 1.917969 -1.222656 1.996094 -0.910156 C 2.121094 -0.429688 2.375 -0.191406 2.75 -0.191406 C 3.109375 -0.191406 3.34375 -0.375 3.457031 -0.742188 C 3.566406 -1.113281 3.625 -1.710938 3.625 -2.542969 C 3.625 -3.371094 3.566406 -3.972656 3.449219 -4.34375 C 3.332031 -4.714844 3.097656 -4.898438 2.757812 -4.898438 C 2.378906 -4.898438 2.128906 -4.660156 2 -4.175781 C 1.917969 -3.855469 1.878906 -3.3125 1.878906 -2.542969 Z "/>
</g>
<g id="glyph-0-11">
<path d="M 0.179688 -0.265625 C 0.382812 -0.292969 0.53125 -0.347656 0.625 -0.429688 C 0.722656 -0.515625 0.769531 -0.683594 0.769531 -0.9375 L 0.769531 -4.203125 C 0.769531 -4.429688 0.730469 -4.585938 0.652344 -4.671875 C 0.574219 -4.757812 0.417969 -4.816406 0.179688 -4.84375 L 0.179688 -5.117188 L 2.285156 -5.117188 L 2.285156 -4.316406 C 2.460938 -4.585938 2.6875 -4.808594 2.960938 -4.984375 C 3.234375 -5.160156 3.535156 -5.246094 3.867188 -5.246094 C 4.34375 -5.246094 4.714844 -5.121094 4.976562 -4.878906 C 5.238281 -4.632812 5.371094 -4.199219 5.371094 -3.582031 L 5.371094 -0.894531 C 5.371094 -0.644531 5.414062 -0.484375 5.5 -0.414062 C 5.582031 -0.339844 5.726562 -0.292969 5.925781 -0.265625 L 5.925781 0 L 3.316406 0 L 3.316406 -0.265625 C 3.515625 -0.304688 3.648438 -0.359375 3.722656 -0.429688 C 3.792969 -0.496094 3.828125 -0.652344 3.828125 -0.894531 L 3.828125 -3.585938 C 3.828125 -3.839844 3.804688 -4.027344 3.753906 -4.15625 C 3.667969 -4.382812 3.496094 -4.496094 3.238281 -4.496094 C 3.046875 -4.496094 2.871094 -4.425781 2.710938 -4.289062 C 2.550781 -4.148438 2.425781 -4.007812 2.339844 -3.867188 L 2.339844 -0.894531 C 2.339844 -0.652344 2.375 -0.496094 2.445312 -0.429688 C 2.519531 -0.359375 2.65625 -0.304688 2.855469 -0.265625 L 2.855469 0 L 0.179688 0 Z "/>
</g>
<g id="glyph-0-12">
<path d="M 2.339844 -1.078125 C 2.351562 -0.875 2.390625 -0.710938 2.457031 -0.582031 C 2.585938 -0.328125 2.804688 -0.199219 3.109375 -0.199219 C 3.488281 -0.199219 3.757812 -0.402344 3.914062 -0.804688 C 4.070312 -1.203125 4.148438 -1.773438 4.148438 -2.507812 C 4.148438 -3.089844 4.082031 -3.589844 3.941406 -4.007812 C 3.800781 -4.429688 3.53125 -4.636719 3.125 -4.636719 C 2.886719 -4.636719 2.695312 -4.550781 2.550781 -4.375 C 2.410156 -4.199219 2.339844 -4.074219 2.339844 -4 Z M 2.339844 -7.507812 L 2.339844 -4.628906 C 2.511719 -4.796875 2.671875 -4.925781 2.820312 -5.011719 C 3.09375 -5.167969 3.386719 -5.246094 3.699219 -5.246094 C 4.324219 -5.246094 4.828125 -5 5.210938 -4.511719 C 5.59375 -4.023438 5.78125 -3.425781 5.78125 -2.710938 C 5.78125 -1.792969 5.539062 -1.085938 5.054688 -0.589844 C 4.566406 -0.0898438 3.960938 0.15625 3.238281 0.15625 C 2.941406 0.15625 2.679688 0.0976562 2.453125 -0.015625 C 2.222656 -0.132812 2.011719 -0.285156 1.8125 -0.472656 L 0.9375 0.15625 L 0.78125 0.15625 L 0.78125 -6.597656 C 0.78125 -6.828125 0.738281 -6.984375 0.65625 -7.066406 C 0.574219 -7.148438 0.417969 -7.203125 0.191406 -7.238281 L 0.191406 -7.507812 Z "/>
</g>
<g id="glyph-0-13">
<path d="M 0.28125 -1.683594 L 0.589844 -1.683594 C 0.699219 -1.152344 0.902344 -0.773438 1.199219 -0.554688 C 1.496094 -0.335938 1.800781 -0.226562 2.109375 -0.226562 C 2.394531 -0.226562 2.605469 -0.292969 2.738281 -0.421875 C 2.871094 -0.550781 2.941406 -0.71875 2.941406 -0.925781 C 2.941406 -1.125 2.867188 -1.296875 2.722656 -1.4375 C 2.644531 -1.511719 2.515625 -1.59375 2.339844 -1.683594 L 1.511719 -2.082031 C 1.078125 -2.296875 0.769531 -2.527344 0.582031 -2.777344 C 0.390625 -3.027344 0.292969 -3.320312 0.292969 -3.660156 C 0.292969 -4.089844 0.441406 -4.464844 0.742188 -4.777344 C 1.042969 -5.089844 1.464844 -5.246094 2 -5.246094 C 2.234375 -5.246094 2.488281 -5.207031 2.75 -5.128906 C 3.015625 -5.050781 3.179688 -5.011719 3.242188 -5.011719 C 3.332031 -5.011719 3.398438 -5.03125 3.4375 -5.070312 C 3.476562 -5.109375 3.507812 -5.160156 3.53125 -5.230469 L 3.777344 -5.230469 L 3.777344 -3.625 L 3.492188 -3.625 C 3.386719 -4 3.21875 -4.300781 2.976562 -4.53125 C 2.738281 -4.757812 2.460938 -4.871094 2.144531 -4.871094 C 1.898438 -4.871094 1.714844 -4.804688 1.59375 -4.664062 C 1.472656 -4.527344 1.410156 -4.378906 1.410156 -4.21875 C 1.410156 -4.089844 1.464844 -3.960938 1.574219 -3.828125 C 1.679688 -3.695312 1.878906 -3.558594 2.171875 -3.417969 L 2.777344 -3.125 C 3.152344 -2.945312 3.429688 -2.769531 3.601562 -2.597656 C 3.890625 -2.308594 4.035156 -1.953125 4.035156 -1.53125 C 4.035156 -1.117188 3.886719 -0.734375 3.589844 -0.378906 C 3.289062 -0.0195312 2.84375 0.15625 2.246094 0.15625 C 2.097656 0.15625 1.949219 0.140625 1.796875 0.109375 C 1.648438 0.078125 1.464844 0.0273438 1.242188 -0.046875 L 1.050781 -0.113281 C 0.984375 -0.140625 0.941406 -0.152344 0.925781 -0.15625 C 0.910156 -0.160156 0.886719 -0.164062 0.863281 -0.164062 C 0.800781 -0.164062 0.746094 -0.136719 0.703125 -0.0898438 C 0.65625 -0.0390625 0.605469 0.0429688 0.546875 0.15625 L 0.28125 0.15625 Z "/>
</g>
<g id="glyph-0-14">
<path d="M 3.855469 -6.222656 C 3.808594 -6.257812 3.777344 -6.300781 3.757812 -6.347656 C 3.738281 -6.394531 3.726562 -6.484375 3.726562 -6.613281 C 3.726562 -6.710938 3.734375 -6.800781 3.75 -6.882812 C 3.765625 -6.964844 3.777344 -7.015625 3.777344 -7.042969 C 3.777344 -7.152344 3.726562 -7.226562 3.628906 -7.261719 C 3.53125 -7.296875 3.414062 -7.3125 3.269531 -7.3125 C 2.859375 -7.3125 2.585938 -7.144531 2.457031 -6.808594 C 2.378906 -6.613281 2.339844 -6.28125 2.339844 -5.808594 L 2.339844 -5.039062 L 3.855469 -5.039062 Z M 3.191406 -7.660156 C 3.472656 -7.660156 3.757812 -7.621094 4.050781 -7.546875 C 4.21875 -7.5 4.425781 -7.425781 4.675781 -7.328125 L 5.191406 -7.660156 L 5.398438 -7.660156 L 5.398438 -0.894531 C 5.398438 -0.699219 5.429688 -0.554688 5.488281 -0.457031 C 5.550781 -0.363281 5.660156 -0.304688 5.820312 -0.28125 L 5.953125 -0.265625 L 5.953125 0 L 3.339844 0 L 3.339844 -0.265625 L 3.429688 -0.28125 C 3.570312 -0.308594 3.675781 -0.355469 3.75 -0.429688 C 3.820312 -0.5 3.855469 -0.65625 3.855469 -0.894531 L 3.855469 -4.550781 L 2.339844 -4.550781 C 2.339844 -4.285156 2.332031 -3.878906 2.324219 -3.335938 C 2.316406 -2.792969 2.3125 -2.417969 2.3125 -2.207031 C 2.3125 -1.78125 2.316406 -1.410156 2.332031 -1.097656 C 2.339844 -0.929688 2.347656 -0.796875 2.355469 -0.699219 C 2.371094 -0.535156 2.417969 -0.429688 2.488281 -0.382812 C 2.558594 -0.332031 2.679688 -0.292969 2.855469 -0.265625 L 2.855469 0 L 0.152344 0 L 0.152344 -0.265625 C 0.378906 -0.292969 0.53125 -0.332031 0.609375 -0.390625 C 0.730469 -0.484375 0.792969 -0.667969 0.792969 -0.9375 L 0.792969 -4.550781 L 0.152344 -4.550781 L 0.152344 -5.039062 L 0.792969 -5.039062 C 0.808594 -5.789062 0.914062 -6.34375 1.117188 -6.699219 C 1.480469 -7.339844 2.171875 -7.660156 3.191406 -7.660156 Z "/>
</g>
<g id="glyph-0-15">
<path d="M 2.273438 -5.117188 L 2.273438 -1.34375 C 2.273438 -1.121094 2.300781 -0.957031 2.355469 -0.851562 C 2.449219 -0.667969 2.632812 -0.574219 2.914062 -0.574219 C 3.089844 -0.574219 3.265625 -0.632812 3.433594 -0.742188 C 3.53125 -0.804688 3.65625 -0.90625 3.804688 -1.050781 L 3.804688 -4.203125 C 3.804688 -4.433594 3.757812 -4.597656 3.664062 -4.691406 C 3.570312 -4.78125 3.386719 -4.832031 3.109375 -4.84375 L 3.109375 -5.117188 L 5.320312 -5.117188 L 5.320312 -1.117188 C 5.320312 -0.886719 5.367188 -0.726562 5.453125 -0.636719 C 5.539062 -0.546875 5.707031 -0.492188 5.960938 -0.472656 L 5.960938 -0.21875 C 5.273438 -0.152344 4.839844 -0.105469 4.664062 -0.0742188 C 4.484375 -0.0429688 4.195312 0.0351562 3.804688 0.15625 L 3.804688 -0.574219 C 3.539062 -0.347656 3.320312 -0.1875 3.148438 -0.09375 C 2.84375 0.0742188 2.527344 0.15625 2.195312 0.15625 C 1.839844 0.15625 1.503906 0.0429688 1.195312 -0.183594 C 0.886719 -0.410156 0.730469 -0.816406 0.730469 -1.398438 L 0.730469 -4.203125 C 0.730469 -4.4375 0.695312 -4.59375 0.617188 -4.664062 C 0.542969 -4.738281 0.394531 -4.796875 0.179688 -4.84375 L 0.179688 -5.117188 Z "/>
</g>
<g id="glyph-0-16">
<path d="M 2.800781 -0.472656 C 3.039062 -0.472656 3.253906 -0.578125 3.441406 -0.792969 C 3.632812 -1.003906 3.726562 -1.15625 3.726562 -1.242188 L 3.726562 -3.945312 C 3.726562 -4.035156 3.644531 -4.167969 3.484375 -4.34375 C 3.320312 -4.523438 3.105469 -4.609375 2.835938 -4.609375 C 2.441406 -4.609375 2.175781 -4.339844 2.035156 -3.792969 C 1.957031 -3.5 1.921875 -3.085938 1.921875 -2.550781 C 1.921875 -1.980469 1.957031 -1.546875 2.027344 -1.257812 C 2.164062 -0.734375 2.417969 -0.472656 2.800781 -0.472656 Z M 0.28125 -2.402344 C 0.28125 -3.28125 0.492188 -3.976562 0.910156 -4.484375 C 1.328125 -4.992188 1.828125 -5.246094 2.414062 -5.246094 C 2.707031 -5.246094 2.96875 -5.171875 3.195312 -5.027344 C 3.335938 -4.941406 3.511719 -4.785156 3.726562 -4.5625 L 3.726562 -6.597656 C 3.726562 -6.875 3.671875 -7.046875 3.5625 -7.113281 C 3.457031 -7.179688 3.230469 -7.222656 2.890625 -7.238281 L 2.890625 -7.507812 L 5.285156 -7.507812 L 5.285156 -1.117188 C 5.285156 -0.886719 5.328125 -0.726562 5.414062 -0.636719 C 5.5 -0.546875 5.671875 -0.492188 5.925781 -0.472656 L 5.925781 -0.21875 C 5.300781 -0.15625 4.902344 -0.109375 4.71875 -0.078125 C 4.539062 -0.046875 4.21875 0.03125 3.765625 0.15625 L 3.765625 -0.574219 C 3.554688 -0.359375 3.363281 -0.195312 3.191406 -0.09375 C 2.914062 0.0742188 2.617188 0.15625 2.300781 0.15625 C 1.757812 0.15625 1.285156 -0.0742188 0.882812 -0.53125 C 0.480469 -0.992188 0.28125 -1.613281 0.28125 -2.402344 Z "/>
</g>
</g>
<image id="source-9" x="0" y="0" width="0" height="0"/>
<mask id="mask-0">
<use xlink:href="#source-9"/>
</mask>
</defs>
<g fill="rgb(34.509804%, 76.862745%, 86.666667%)" fill-opacity="1">
<use xlink:href="#glyph-0-0" x="30" y="28.333008"/>
<use xlink:href="#glyph-0-1" x="41" y="28.333008"/>
<use xlink:href="#glyph-0-2" x="47" y="28.333008"/>
<use xlink:href="#glyph-0-3" x="50" y="28.333008"/>
<use xlink:href="#glyph-0-1" x="55" y="28.333008"/>
<use xlink:href="#glyph-0-4" x="61" y="28.333008"/>
<use xlink:href="#glyph-0-3" x="64" y="28.333008"/>
<use xlink:href="#glyph-0-5" x="69" y="28.333008"/>
<use xlink:href="#glyph-0-6" x="74" y="28.333008"/>
<use xlink:href="#glyph-0-7" x="79" y="28.333008"/>
<use xlink:href="#glyph-0-2" x="83" y="28.333008"/>
<use xlink:href="#glyph-0-8" x="86" y="28.333008"/>
<use xlink:href="#glyph-0-3" x="92" y="28.333008"/>
<use xlink:href="#glyph-0-9" x="97" y="28.333008"/>
<use xlink:href="#glyph-0-7" x="103" y="28.333008"/>
<use xlink:href="#glyph-0-2" x="107" y="28.333008"/>
<use xlink:href="#glyph-0-10" x="110" y="28.333008"/>
<use xlink:href="#glyph-0-11" x="116" y="28.333008"/>
<use xlink:href="#glyph-0-4" x="122" y="28.333008"/>
<use xlink:href="#glyph-0-12" x="125" y="28.333008"/>
<use xlink:href="#glyph-0-5" x="131" y="28.333008"/>
<use xlink:href="#glyph-0-13" x="136" y="28.333008"/>
<use xlink:href="#glyph-0-7" x="140" y="28.333008"/>
<use xlink:href="#glyph-0-4" x="144" y="28.333008"/>
<use xlink:href="#glyph-0-6" x="147" y="28.333008"/>
<use xlink:href="#glyph-0-5" x="152" y="28.333008"/>
<use xlink:href="#glyph-0-14" x="157" y="28.333008"/>
<use xlink:href="#glyph-0-5" x="163" y="28.333008"/>
<use xlink:href="#glyph-0-3" x="168" y="28.333008"/>
<use xlink:href="#glyph-0-7" x="173" y="28.333008"/>
<use xlink:href="#glyph-0-13" x="177" y="28.333008"/>
<use xlink:href="#glyph-0-4" x="181" y="28.333008"/>
<use xlink:href="#glyph-0-9" x="184" y="28.333008"/>
<use xlink:href="#glyph-0-4" x="190" y="28.333008"/>
<use xlink:href="#glyph-0-13" x="193" y="28.333008"/>
<use xlink:href="#glyph-0-7" x="197" y="28.333008"/>
<use xlink:href="#glyph-0-15" x="201" y="28.333008"/>
<use xlink:href="#glyph-0-16" x="207" y="28.333008"/>
</g>
</svg>
